<?xml version="1.0" encoding="UTF-8" standalone="no"?>
<svg
   xmlns:dc="http://purl.org/dc/elements/1.1/"
   xmlns:cc="http://creativecommons.org/ns#"
   xmlns:rdf="http://www.w3.org/1999/02/22-rdf-syntax-ns#"
   xmlns:svg="http://www.w3.org/2000/svg"
   xmlns="http://www.w3.org/2000/svg"
   xmlns:sodipodi="http://sodipodi.sourceforge.net/DTD/sodipodi-0.dtd"
   xmlns:inkscape="http://www.inkscape.org/namespaces/inkscape"
   width="158.99026mm"
   height="7.7350273mm"
   viewBox="0 0 158.99027 7.735026"
   version="1.1"
   id="svg8"
   inkscape:version="1.0 (4035a4fb49, 2020-05-01)"
   sodipodi:docname="dessin_trait1.svg">
  <defs
     id="defs2" />
  <sodipodi:namedview
     id="base"
     pagecolor="#ffffff"
     bordercolor="#666666"
     borderopacity="1.0"
     inkscape:pageopacity="0.0"
     inkscape:pageshadow="2"
     inkscape:zoom="2.8477959"
     inkscape:cx="371.29735"
     inkscape:cy="183.50942"
     inkscape:document-units="mm"
     inkscape:current-layer="layer1"
     inkscape:document-rotation="0"
     showgrid="false"
     inkscape:window-width="1718"
     inkscape:window-height="1368"
     inkscape:window-x="684"
     inkscape:window-y="265"
     inkscape:window-maximized="0"
     scale-x="1"
     showborder="true"
     inkscape:lockguides="false"
     inkscape:snap-center="true"
     borderlayer="true"
     fit-margin-top="1.5"
     fit-margin-bottom="1.2"
     fit-margin-left="0.3"
     fit-margin-right="0.3" />
  <metadata
     id="metadata5">
    <rdf:RDF>
      <cc:Work
         rdf:about="">
        <dc:format>image/svg+xml</dc:format>
        <dc:type
           rdf:resource="http://purl.org/dc/dcmitype/StillImage" />
        <dc:title></dc:title>
      </cc:Work>
    </rdf:RDF>
  </metadata>
  <g
     inkscape:label="Calque 1"
     inkscape:groupmode="layer"
     id="layer1"
     transform="translate(-0.26090951,15.230644)">
    <path
       style="fill:#000000;stroke-width:0.338631"
       d="M 120.01955,-8.8515453 C 112.37169,-9.091701 47.805579,-9.984168 41.962249,-9.930488 c -1.080038,0.0099 -4.835625,0.214065 -8.345749,0.453665 -3.510123,0.239593 -12.383565,0.444742 -19.718758,0.455898 l -13.33671443,0.02029 -1.18e-4,-1.426839 c -1.07e-4,-1.283406 0.134431,-1.521145 1.33839003,-2.365004 l 1.338508,-0.938166 12.4892514,0.0052 c 6.869088,0.0029 14.992976,0.152617 18.053084,0.332928 7.451846,0.439101 66.689667,0.547514 74.948097,0.137174 9.32979,-0.463576 48.35202,0.577983 49.66538,1.325645 0.66083,0.376184 0.7512,1.371689 0.18001,1.983179 -0.22358,0.239344 -1.31606,0.424121 -2.53645,0.428993 -1.17905,0.0046 -2.73282,0.14778 -3.45285,0.317948 -1.9326,0.4566994 -22.20592,0.673436 -32.56478,0.348152 z"
       id="path863" />
  </g>
</svg>
