<?xml version="1.0" encoding="UTF-8"?>
<svg width="7.8719mm" height="8.3672mm" version="1.1" viewBox="0 0 68.719 73.672" xmlns="http://www.w3.org/2000/svg" xmlns:xlink="http://www.w3.org/1999/xlink">
	<defs>
		<linearGradient id="linearGradient32" x1="-111.51" x2="-55.567" y1="33.415" y2="31.913" gradientUnits="userSpaceOnUse">
			<stop stop-color="#f26064" offset="0"/>
			<stop stop-color="#f78f6a" offset="1"/>
		</linearGradient>
	</defs>
	<g transform="translate(111.49 32.506)">
		<path d="m-105.61 40.577c-1.0186-0.37156-1.8918-0.79172-1.9403-0.93368s-0.25653-0.25811-0.46226-0.25811c-0.42991 0-2.4923-1.789-2.4923-2.162 0-0.13657-0.24877-0.7944-0.55283-1.4619-1.0565-2.3191-0.13784-5.4464 2.3136-7.876 3-2.9733 6.7079-4.325 11.005-4.0119 1.1278 0.08215 2.2291 0.08083 2.4474-0.0029 0.34831-0.13367 0.39692-2.7722 0.39692-21.545 0-21.149 0.0061-21.398 0.53644-21.892 0.29504-0.27488 1.0382-0.6501 1.6514-0.83383 0.61324-0.18373 1.3508-0.49925 1.6391-0.70116 0.28826-0.2019 0.76727-0.3671 1.0645-0.3671 0.2972 0 0.98465-0.23812 1.5277-0.52917 0.54302-0.29104 1.1668-0.52917 1.3861-0.52917s0.84308-0.23812 1.3861-0.52917c0.54302-0.29104 1.2092-0.52917 1.4804-0.52917 0.27121 0 0.86828-0.17345 1.3268-0.38544 1.2655-0.58504 5.6702-1.9958 6.2314-1.9958 0.27224 0 0.83602-0.17786 1.2528-0.39524 0.41682-0.21738 1.0375-0.39598 1.3793-0.39688 0.34181-8.99e-4 0.99665-0.17865 1.4552-0.39502 0.45856-0.21636 1.5481-0.50475 2.4212-0.64087 0.87312-0.13612 2.1233-0.42091 2.7781-0.63288 1.6801-0.54384 3.0948-0.87548 6.8792-1.6127 7.4144-1.4443 10.829-2.0018 12.99-2.1206 1.2507-0.06881 2.5798-0.20187 2.9536-0.29569 0.49418-0.12403 0.8303-0.01992 1.2317 0.38152l0.5521 0.5521v28.648c0 23.702-0.06204 28.739-0.35934 29.17-0.19763 0.28704-0.43848 0.95413-0.53522 1.4824-0.26839 1.4657-2.9004 4.1967-5.0385 5.2279-0.93859 0.45267-1.8688 0.82304-2.0671 0.82304-0.19835 0-0.49354 0.13291-0.65598 0.29535-0.16244 0.16244-1.5958 0.35698-3.1852 0.43232-3.7371 0.17713-5.3888-0.32612-8.2193-2.5043-1.0015-0.77072-1.9811-3.1679-1.9833-4.8531-0.0024-1.8908 1.1977-4.2325 3.0379-5.9276 1.3962-1.2861 3.4868-2.5239 4.2627-2.5239 0.26094 0 0.79255-0.20836 1.1814-0.46302 0.57139-0.37425 1.3432-0.4683 4.0256-0.49054 1.8253-0.01514 3.4675-0.04491 3.6494-0.06615 0.26047-0.03042 0.33073-3.4041 0.33073-15.881 0-14.097-0.04593-15.881-0.41685-16.189-0.3406-0.28267-1.0302-0.28656-3.7703-0.02127-1.8444 0.17858-5.0602 0.43798-7.1463 0.57645-2.0861 0.13847-3.9315 0.33819-4.101 0.44382-0.27447 0.17103-2.703 0.57547-8.5103 1.4172-1.0186 0.14766-2.5665 0.45746-3.4396 0.68845-0.87312 0.23099-2.3614 0.57578-3.3073 0.7662-2.8062 0.56494-5.1125 1.191-5.8617 1.5913-0.38626 0.20637-0.96853 0.37522-1.2939 0.37522s-1.1059 0.25682-1.7344 0.57071l-1.1427 0.57071-0.07687 20.304c-0.07019 18.538-0.11534 20.346-0.51928 20.794-0.24332 0.26985-0.52238 0.81112-0.62013 1.2028-0.15252 0.61122-1.9495 2.6706-3.0782 3.5278-0.31595 0.23992-1.8885 1.0143-4.3259 2.1301-0.43656 0.19986-1.9844 0.42937-3.4396 0.51003-2.3884 0.13238-2.826 0.08093-4.4979-0.52891zm20.321-53.312c1.6293-0.43503 3.4981-0.92842 4.153-1.0964s1.8757-0.52644 2.713-0.79653 1.8494-0.49262 2.249-0.49449c0.3996-0.0019 1.4813-0.24 2.4038-0.52917 0.92247-0.28916 2.0297-0.52575 2.4605-0.52575 0.43083 0 1.1048-0.16363 1.4978-0.36363 0.39296-0.2 1.5479-0.4463 2.5665-0.54734 1.0186-0.10104 2.4474-0.34495 3.175-0.54203 2.1934-0.59408 6.9037-1.2668 11.906-1.7004 2.4724-0.21431 3.2478-0.37534 3.5057-0.72813 0.20565-0.28124 0.33122-1.333 0.33122-2.7743 0-2.1011-0.05372-2.3501-0.56612-2.6244-0.70319-0.37634-5.4171-0.12233-7.9005 0.42571-0.94588 0.20874-3.2081 0.68904-5.0271 1.0673-4.8326 1.005-8.7239 1.9436-9.8611 2.3785-0.54865 0.20984-1.3226 0.38226-1.7198 0.38315-0.39724 9e-4 -1.0794 0.19506-1.516 0.43148-0.43656 0.23642-1.2105 0.52326-1.7198 0.63742s-2.1167 0.64224-3.5719 1.1735c-1.4552 0.53126-3.2411 1.1791-3.9687 1.4396s-2.0968 0.77446-3.0427 1.1421l-1.7198 0.66846-0.08044 1.5228c-0.08752 1.6568 0.03885 2.2435 0.48323 2.2435 0.15791 0 1.6202-0.35594 3.2495-0.79097z" fill="url(#linearGradient32)" stroke-width=".26458"/>
	</g>
</svg>
