<?xml version="1.0" encoding="UTF-8" standalone="no"?>
<svg
   xmlns:dc="http://purl.org/dc/elements/1.1/"
   xmlns:cc="http://creativecommons.org/ns#"
   xmlns:rdf="http://www.w3.org/1999/02/22-rdf-syntax-ns#"
   xmlns:svg="http://www.w3.org/2000/svg"
   xmlns="http://www.w3.org/2000/svg"
   xmlns:sodipodi="http://sodipodi.sourceforge.net/DTD/sodipodi-0.dtd"
   xmlns:inkscape="http://www.inkscape.org/namespaces/inkscape"
   sodipodi:docname="trait-chic-g-plat.svg"
   inkscape:version="1.0 (4035a4fb49, 2020-05-01)"
   id="svg8"
   version="1.1"
   viewBox="0 0 211 14"
   height="14mm"
   width="211mm">
  <defs
     id="defs2" />
  <sodipodi:namedview
     inkscape:window-maximized="0"
     inkscape:window-y="298"
     inkscape:window-x="1567"
     inkscape:window-height="967"
     inkscape:window-width="1452"
     showgrid="false"
     inkscape:document-rotation="0"
     inkscape:current-layer="layer1"
     inkscape:document-units="mm"
     inkscape:cy="560"
     inkscape:cx="400"
     inkscape:zoom="0.35"
     inkscape:pageshadow="2"
     inkscape:pageopacity="0.0"
     borderopacity="1.0"
     bordercolor="#666666"
     pagecolor="#ffffff"
     id="base" />
  <metadata
     id="metadata5">
    <rdf:RDF>
      <cc:Work
         rdf:about="">
        <dc:format>image/svg+xml</dc:format>
        <dc:type
           rdf:resource="http://purl.org/dc/dcmitype/StillImage" />
        <dc:title></dc:title>
      </cc:Work>
    </rdf:RDF>
  </metadata>
  <g
     id="layer1"
     inkscape:groupmode="layer"
     inkscape:label="Calque 1">
    <path
       id="path847"
       d="m 176.06705,10.602229 c -0.15474,-0.154233 -2.57295,-0.264583 -5.79811,-0.264583 -3.22516,0 -5.64338,-0.11035 -5.79811,-0.264583 -0.16,-0.1594826 -3.14561,-0.2645836 -7.51606,-0.2645836 -4.37046,0 -7.35607,-0.1051 -7.51607,-0.264583 -0.16201,-0.161489 -3.5607,-0.267377 -8.72251,-0.271752 -4.65138,-0.0039 -10.29313,-0.118167 -12.53721,-0.253831 -2.24409,-0.135664 -14.28311,-0.330331 -26.7534,-0.432593 -12.470275,-0.102262 -22.773323,-0.285694 -22.89565,-0.407628 -0.122334,-0.121932 -8.027045,-0.221696 -17.56604,-0.221696 -11.09913,0 -17.439197,-0.09526 -17.609064,-0.264583 C 43.183545,7.5210864 35.290261,7.4257924 21.103402,7.4231784 6.7500164,7.4205784 -0.65892924,7.3300884 -0.23834736,7.1626464 0.15585057,7.0057084 8.9388663,6.9045934 22.391869,6.9021144 c 14.18686,-0.0026 22.080145,-0.09791 22.251424,-0.268635 0.169868,-0.169321 6.509934,-0.264583 17.609065,-0.264583 11.099131,0 17.439202,-0.09526 17.609064,-0.264583 0.1684,-0.167855 5.516243,-0.264584 14.627991,-0.264584 7.899397,0 14.362547,-0.100048 14.362547,-0.222328 0,-0.122281 8.16567,-0.308076 18.14592,-0.412878 9.98027,-0.104802 19.59546,-0.297182 21.3671,-0.427511 1.77164,-0.130329 6.15714,-0.242191 9.74554,-0.248581 3.86507,-0.0069 6.63256,-0.119461 6.78981,-0.276202 0.15472,-0.154233 2.57294,-0.264583 5.79809,-0.264583 3.22517,0 5.64338,-0.11035 5.79812,-0.264583 0.43979,-0.438381 3.88736,-0.298018 5.65014,0.230039 2.44029,0.73101 4.60999,1.11443 7.25963,1.282898 1.29926,0.08261 2.46466,0.252241 2.58978,0.376963 0.12512,0.124721 1.0744,0.226766 2.10951,0.226766 1.0351,0 2.00145,0.119063 2.14745,0.264584 0.14599,0.14552 1.49889,0.264583 3.00641,0.264583 1.50755,0 2.86045,0.119062 3.00644,0.264583 0.14598,0.145521 1.69215,0.264584 3.43591,0.264584 1.74377,0 3.28993,0.119062 3.43591,0.264583 0.16852,0.167967 -0.98923,0.264583 -3.17047,0.264583 -1.88975,0 -3.55537,0.119063 -3.70135,0.264584 -0.14599,0.14552 -1.31963,0.264583 -2.60811,0.264583 -1.28847,0 -2.67828,0.108885 -3.08846,0.241966 -0.41017,0.133081 -2.38856,0.37284 -4.39642,0.532797 -5.10865,0.406981 -6.41508,0.571489 -6.68642,0.84197 -0.12986,0.129443 -0.70788,0.23535 -1.28449,0.23535 -0.57661,0 -1.04838,0.119063 -1.04838,0.2645836 0,0.14552 -0.48317,0.264583 -1.07372,0.264583 -0.59056,0 -1.07373,0.119062 -1.07373,0.264583 0,0.145521 -1.05157,0.264584 -2.33685,0.264584 -1.28525,0 -2.45628,-0.119063 -2.60227,-0.264584 z"
       style="fill:#b37097;stroke-width:1;fill-opacity:1" />
  </g>
</svg>
