<?xml version="1.0" encoding="UTF-8" standalone="no"?>
<svg
   xmlns:dc="http://purl.org/dc/elements/1.1/"
   xmlns:cc="http://creativecommons.org/ns#"
   xmlns:rdf="http://www.w3.org/1999/02/22-rdf-syntax-ns#"
   xmlns:svg="http://www.w3.org/2000/svg"
   xmlns="http://www.w3.org/2000/svg"
   xmlns:sodipodi="http://sodipodi.sourceforge.net/DTD/sodipodi-0.dtd"
   xmlns:inkscape="http://www.inkscape.org/namespaces/inkscape"
   width="210mm"
   height="297mm"
   viewBox="0 0 210 297"
   version="1.1"
   id="svg8"
   inkscape:version="1.0 (4035a4fb49, 2020-05-01)"
   sodipodi:docname="trait.svg">
  <defs
     id="defs2" />
  <sodipodi:namedview
     id="base"
     pagecolor="#ffffff"
     bordercolor="#666666"
     borderopacity="1.0"
     inkscape:pageopacity="0.0"
     inkscape:pageshadow="2"
     inkscape:zoom="0.91417219"
     inkscape:cx="396.85039"
     inkscape:cy="517.50441"
     inkscape:document-units="mm"
     inkscape:current-layer="layer1"
     inkscape:document-rotation="0"
     showgrid="false"
     inkscape:window-width="1452"
     inkscape:window-height="1198"
     inkscape:window-x="130"
     inkscape:window-y="130"
     inkscape:window-maximized="0" />
  <metadata
     id="metadata5">
    <rdf:RDF>
      <cc:Work
         rdf:about="">
        <dc:format>image/svg+xml</dc:format>
        <dc:type
           rdf:resource="http://purl.org/dc/dcmitype/StillImage" />
        <dc:title></dc:title>
      </cc:Work>
    </rdf:RDF>
  </metadata>
  <g
     inkscape:label="Calque 1"
     inkscape:groupmode="layer"
     id="layer1"
     style="display:inline">
    <path
       style="fill:#000000;stroke-width:0.264583"
       d="m 139.83229,53.860816 c -6.18268,-0.18136 -58.379258,-0.8553 -63.103127,-0.81477 -0.873125,0.007 -3.909219,0.16166 -6.746874,0.34259 -2.837656,0.18093 -10.011129,0.33585 -15.941051,0.34427 l -10.781676,0.0153 -9.5e-5,-1.07748 c -8.6e-5,-0.96917 0.108677,-1.14869 1.081982,-1.78593 l 1.082078,-0.70846 10.096568,0.004 c 5.553113,0.002 30.037537,0.11525 32.511392,0.25141 6.024225,0.33159 53.929713,0.664587 60.589593,0.10359 10.00257,-0.842571 33.46613,-0.118724 22.23361,1.00106 -0.60208,0.06002 0.60728,1.03584 0.14552,1.4976 -0.18075,0.18075 -1.06393,0.32028 -2.05052,0.32397 -0.95316,0.004 -2.20927,0.11159 -2.79135,0.24009 -1.56236,0.34488 -17.95173,0.50856 -26.32605,0.26291 z"
       id="path24"
       sodipodi:nodetypes="ccsccsscccssscccc" />
  </g>
</svg>
