<?xml version="1.0" encoding="UTF-8" standalone="no"?>
<svg
   xmlns:dc="http://purl.org/dc/elements/1.1/"
   xmlns:cc="http://creativecommons.org/ns#"
   xmlns:rdf="http://www.w3.org/1999/02/22-rdf-syntax-ns#"
   xmlns:svg="http://www.w3.org/2000/svg"
   xmlns="http://www.w3.org/2000/svg"
   xmlns:sodipodi="http://sodipodi.sourceforge.net/DTD/sodipodi-0.dtd"
   xmlns:inkscape="http://www.inkscape.org/namespaces/inkscape"
   width="211mm"
   height="14mm"
   viewBox="0 0 211 14"
   version="1.1"
   id="svg8"
   inkscape:version="1.0 (4035a4fb49, 2020-05-01)"
   sodipodi:docname="trait-chic-g-dessert.svg">
  <defs
     id="defs2" />
  <sodipodi:namedview
     id="base"
     pagecolor="#ffffff"
     bordercolor="#666666"
     borderopacity="1.0"
     inkscape:pageopacity="0.0"
     inkscape:pageshadow="2"
     inkscape:zoom="0.35"
     inkscape:cx="400"
     inkscape:cy="560"
     inkscape:document-units="mm"
     inkscape:current-layer="layer1"
     inkscape:document-rotation="0"
     showgrid="false"
     inkscape:window-width="1452"
     inkscape:window-height="967"
     inkscape:window-x="1567"
     inkscape:window-y="298"
     inkscape:window-maximized="0" />
  <metadata
     id="metadata5">
    <rdf:RDF>
      <cc:Work
         rdf:about="">
        <dc:format>image/svg+xml</dc:format>
        <dc:type
           rdf:resource="http://purl.org/dc/dcmitype/StillImage" />
        <dc:title />
      </cc:Work>
    </rdf:RDF>
  </metadata>
  <g
     inkscape:label="Calque 1"
     inkscape:groupmode="layer"
     id="layer1">
    <path
       style="fill:#905bfd;fill-opacity:1;stroke-width:1"
       d="m 176.69515,10.241132 c -0.15474,-0.154233 -2.57295,-0.264583 -5.79811,-0.264583 -3.22516,0 -5.64338,-0.11035 -5.79811,-0.264583 -0.16,-0.159482 -3.14561,-0.264583 -7.51606,-0.264583 -4.37046,0 -7.35607,-0.1051 -7.51607,-0.264583 C 149.90479,9.021311 146.5061,8.915423 141.34429,8.911048 136.69291,8.907148 131.05116,8.792881 128.80708,8.657217 126.56299,8.521553 114.52397,8.326886 102.05369,8.224624 89.583412,8.122362 79.280364,7.93893 79.158037,7.816996 79.035703,7.695064 71.130992,7.5953 61.591997,7.5953 50.492867,7.5953 44.1528,7.50004 43.982933,7.330717 43.811652,7.15999 35.918368,7.064696 21.731509,7.062082 7.3781228,7.059482 -0.03082279,6.968992 0.38975911,6.80155 0.78395701,6.644612 9.5669727,6.543497 23.019976,6.541018 37.206836,6.538418 45.100121,6.443108 45.2714,6.272383 45.441268,6.103062 51.781334,6.0078 62.880465,6.0078 c 11.099131,0 17.439202,-0.09526 17.609064,-0.264583 0.1684,-0.167855 5.516243,-0.264584 14.627991,-0.264584 7.8994,0 14.36254,-0.100048 14.36254,-0.222328 0,-0.122281 8.16567,-0.308076 18.14592,-0.412878 9.98027,-0.104802 19.59546,-0.297182 21.3671,-0.427511 1.77164,-0.130329 6.15714,-0.242191 9.74554,-0.248581 3.86507,-0.0069 6.63256,-0.119461 6.78981,-0.276202 0.15472,-0.154233 2.57294,-0.264583 5.79809,-0.264583 3.22517,0 5.64338,-0.11035 5.79812,-0.264583 0.43979,-0.438381 3.88736,-0.298018 5.65014,0.230039 2.44029,0.73101 4.60999,1.11443 7.25963,1.282898 1.29926,0.08261 2.46466,0.252241 2.58978,0.376963 0.12512,0.124721 1.0744,0.226766 2.10951,0.226766 1.0351,0 2.00145,0.119063 2.14745,0.264584 0.14599,0.14552 1.49889,0.264583 3.00641,0.264583 1.50755,0 2.86045,0.119062 3.00644,0.264583 0.14598,0.145521 1.69215,0.264584 3.43591,0.264584 1.74377,0 3.28993,0.119062 3.43591,0.264583 0.16852,0.167967 -0.98923,0.264583 -3.17047,0.264583 -1.88975,0 -3.55537,0.119063 -3.70135,0.264584 -0.14599,0.14552 -1.31963,0.264583 -2.60811,0.264583 -1.28847,0 -2.67828,0.108885 -3.08846,0.241966 -0.41017,0.133081 -2.38856,0.37284 -4.39642,0.532797 -5.10865,0.406981 -6.41508,0.571489 -6.68642,0.84197 -0.12986,0.129443 -0.70788,0.23535 -1.28449,0.23535 -0.57661,0 -1.04838,0.119063 -1.04838,0.264583 0,0.14552 -0.48317,0.264583 -1.07372,0.264583 -0.59056,0 -1.07373,0.119062 -1.07373,0.264583 0,0.145521 -1.05157,0.264584 -2.33685,0.264584 -1.28525,0 -2.45628,-0.119063 -2.60227,-0.264584 z"
       id="path847" />
  </g>
</svg>
