<?xml version="1.0" encoding="UTF-8" standalone="no"?>
<svg
   xmlns:dc="http://purl.org/dc/elements/1.1/"
   xmlns:cc="http://creativecommons.org/ns#"
   xmlns:rdf="http://www.w3.org/1999/02/22-rdf-syntax-ns#"
   xmlns:svg="http://www.w3.org/2000/svg"
   xmlns="http://www.w3.org/2000/svg"
   xmlns:sodipodi="http://sodipodi.sourceforge.net/DTD/sodipodi-0.dtd"
   xmlns:inkscape="http://www.inkscape.org/namespaces/inkscape"
   sodipodi:docname="trait-papilles3-g.svg"
   inkscape:version="1.0 (4035a4fb49, 2020-05-01)"
   id="svg8"
   version="1.1"
   viewBox="0 0 47 6"
   height="6mm"
   width="47mm">
  <defs
     id="defs2" />
  <sodipodi:namedview
     inkscape:window-maximized="0"
     inkscape:window-y="196"
     inkscape:window-x="1248"
     inkscape:window-height="967"
     inkscape:window-width="1452"
     showgrid="false"
     inkscape:document-rotation="0"
     inkscape:current-layer="layer1"
     inkscape:document-units="mm"
     inkscape:cy="98.774077"
     inkscape:cx="92.437877"
     inkscape:zoom="2.8"
     inkscape:pageshadow="2"
     inkscape:pageopacity="0.0"
     borderopacity="1.0"
     bordercolor="#666666"
     pagecolor="#ffffff"
     id="base" />
  <metadata
     id="metadata5">
    <rdf:RDF>
      <cc:Work
         rdf:about="">
        <dc:format>image/svg+xml</dc:format>
        <dc:type
           rdf:resource="http://purl.org/dc/dcmitype/StillImage" />
        <dc:title></dc:title>
      </cc:Work>
    </rdf:RDF>
  </metadata>
  <g
     id="layer1"
     inkscape:groupmode="layer"
     inkscape:label="Calque 1">
    <path
       d="m 1.6208688,1.712566 c -0.011811,0.01772 0,0.159681 0,0.159681 0,0 0.051786,0.03734 0.062011,0.04496 -0.032615,-0.140671 -0.05483,-0.215411 -0.062011,-0.204639 z m 0.062011,0.204639 c 0.021027,0.09069 0.04306,0.185885 0.080099,0.380339 0.1889879,0.992188 1.984375,1.559078 1.984375,1.559078 l 2.0314004,0.04702 H 8.4721301 L 44.993932,3.809072 44.568633,2.958995 H 27.276149 15.559036 3.8419218 c 0,0 0.053306,-0.05277 0.095601,-0.09457 H 3.9251221 3.8419231 C 3.3956395,3.176834 1.8571515,2.047087 1.6828816,1.917205 Z"
       style="fill:#0887fb;stroke:#0887fb;stroke-width:0.264583px;stroke-linecap:butt;stroke-linejoin:miter;stroke-opacity:1;fill-opacity:1"
       id="path875" />
  </g>
  <path
     d="m 22.148438,77.880859 c -0.239302,-0.02965 -0.399098,0.04536 -0.472657,0.152344 0.02565,0.0012 0.0459,-0.0017 0.07422,0.002 0.228262,0.02944 0.458405,0.0586 0.667969,0.160156 0.141241,0.0686 0.08254,0.09717 0.152343,0.04883 0.193254,-0.01901 0.367004,0.03493 0.546876,0.0957 0.06668,0.02268 0.118112,0.05582 0.185546,0.03125 0.190303,-0.03742 0.385797,-0.02558 0.578125,-0.01953 0.120567,0.0013 0.24075,-0.0021 0.361329,-0.002 0.04262,7.2e-5 0.08465,0.0053 0.126953,0 0.04351,-0.0053 0.08046,-0.03629 0.123047,-0.04687 0.157178,-0.03845 0.145566,-0.02262 0.210937,-0.02344 0.0043,-0.004 0.009,-0.0076 0.01367,-0.01172 0.03395,-0.02974 0.05796,-0.05847 0.101562,-0.08203 0.05672,-0.03084 0.123445,-0.03774 0.1875,-0.04492 0.120405,-0.01361 0.232851,0.02518 0.138672,-0.0039 0.02661,-0.02239 0.05883,-0.02783 0.08789,-0.04297 -0.135879,-0.02079 -0.271088,-0.04542 -0.408203,-0.05859 -0.133765,-0.01285 -0.272281,0.01304 -0.40625,0 -0.266219,-0.0064 -0.531505,-0.01524 -0.796875,0.01953 -0.148007,0.0079 -0.296946,0.02069 -0.445313,0.0078 -0.203508,-0.01776 -0.279716,-0.06043 -0.490234,-0.103516 -0.195156,-0.03995 -0.343245,-0.05409 -0.537109,-0.07813 z m 3.4375,0.05273 c -0.04335,-0.01732 -0.07468,0.01986 -0.09375,0.09375 0.03605,-0.0012 0.0699,-0.0079 0.107421,-0.0059 0.03683,0.002 0.04643,0.01161 0.07031,0.01758 -0.02911,-0.03577 -0.05647,-0.09448 -0.08398,-0.105468 z m 0.167968,0.21289 c -0.04769,0.09506 -0.223403,0.225748 -0.333984,0.330078 h 0.207031 c 0.07437,0 0.13864,0.0097 0.195313,0.02539 0.01665,-0.112135 -0.01624,-0.244997 -0.06836,-0.355469 z m -1.023437,0.123047 c -0.0077,0.0062 -0.0056,0.0032 -0.01172,0.0078 0.01765,-6.99e-4 0.01264,-0.0028 0.04492,-0.0059 0.01139,-0.0011 -0.0143,-0.0012 -0.0332,-0.002 z"
     transform="scale(0.26458333)"
     style="fill:#ff0000;fill-opacity:1;fill-rule:nonzero;stroke:none;stroke-width:3.77953"
     id="path941" />
  <path
     d="m 25.599609,78.021484 c -0.170573,-0.0094 -0.327713,0.0081 -0.455078,0.115235 0.09418,0.0291 -0.01827,-0.0097 -0.138672,0.0039 -0.06405,0.0072 -0.13078,0.01408 -0.1875,0.04492 -0.0436,0.02356 -0.06761,0.05229 -0.101562,0.08203 -0.0047,0.0041 -0.0094,0.0078 -0.01367,0.01172 -0.06537,8.17e-4 -0.05376,-0.01502 -0.210937,0.02344 -0.04258,0.01058 -0.07953,0.04157 -0.123047,0.04687 -0.0423,0.0053 -0.08433,7.2e-5 -0.126953,0 -0.120579,-1.66e-4 -0.240762,0.0033 -0.361329,0.002 -0.192328,-0.006 -0.387822,-0.01789 -0.578125,0.01953 -0.06743,0.02457 -0.118866,-0.0086 -0.185546,-0.03125 -0.179872,-0.06077 -0.353622,-0.11472 -0.546876,-0.0957 -0.0698,0.04834 -0.0111,0.01977 -0.152343,-0.04883 -0.209564,-0.101553 -0.439707,-0.130713 -0.667969,-0.160156 -0.357924,-0.04618 -0.496592,0.114376 -0.439453,0.291016 0.06193,-0.02246 0.107483,-0.05324 0.185547,-0.06445 0.123558,-0.01776 0.371711,0.09974 0.507812,0.103515 0.01553,-0.0058 0.01047,-0.0066 0.0332,-0.01563 0.196392,-0.07797 0.197686,0.0062 0.152344,0.126953 h 0.447266 0.49414 0.78125 0.214844 c 0.0013,0 0.0024,2.06e-4 0.0039,0 0.014,-0.002 0.03704,-0.01197 0.03711,0 0.0048,-0.01935 0.02511,-0.02046 0.04883,-0.01562 0.02371,0.0048 0.05233,0.01562 0.07227,0.01562 h 0.480469 0.587891 0.07617 c 0.184831,-0.177926 0.562932,-0.432999 0.166015,-0.455078 z m -0.86914,0.248047 c 0.0189,7.04e-4 0.04459,7.83e-4 0.0332,0.002 -0.03228,0.0031 -0.02727,0.0052 -0.04492,0.0059 0.0061,-0.0046 0.004,-0.0016 0.01172,-0.0078 z"
     transform="scale(0.26458333)"
     style="fill:#ff0000;fill-opacity:1;fill-rule:nonzero;stroke:none;stroke-width:3.77953"
     id="path952" />
  <path
     d="m 21.496094,78.261719 c -0.618648,0.08889 -0.747165,0.58596 -0.123047,0.61914 0.121831,0.0064 0.238683,0.04016 0.355469,0.07227 -0.153434,-0.18668 -0.02486,-0.476563 0.40039,-0.476563 h 0.05273 c 0.04406,-0.118076 0.0482,-0.203473 -0.144532,-0.126953 -0.02273,0.009 -0.01767,0.0098 -0.0332,0.01563 -0.136101,-0.0038 -0.384254,-0.121278 -0.507812,-0.103515 z"
     transform="scale(0.26458333)"
     style="fill:#ff0000;fill-opacity:1;fill-rule:nonzero;stroke:none;stroke-width:3.77953"
     id="path968" />
  <path
     d="m 24.216797,78.460938 c -0.02372,-0.0048 -0.04399,-0.0037 -0.04883,0.01562 -6.7e-5,-0.01197 -0.02311,-0.002 -0.03711,0 -0.0015,2.06e-4 -0.0026,0 -0.0039,0 h -0.214844 -0.78125 -0.49414 -0.507813 c -0.625,0 -0.625,0.63086 0,0.63086 h 0.507813 0.49414 0.78125 0.214844 c 0.0013,0 0.0024,-2.06e-4 0.0039,0 0.014,0.002 0.03704,0.01197 0.03711,0 0.0097,0.0387 0.08121,0 0.121093,0 h 0.480469 0.587891 0.269531 c 0.625,0 0.625,-0.63086 0,-0.63086 h -0.269531 -0.587891 -0.480469 c -0.01994,0 -0.04855,-0.01079 -0.07227,-0.01562 z"
     transform="scale(0.26458333)"
     style="fill:#ff0000;fill-opacity:1;fill-rule:nonzero;stroke:none;stroke-width:3.77953"
     id="path989" />
  <path
     d="m 26.466797,74.166016 c -0.262881,-0.03226 -0.376713,0.319871 -0.07617,0.679687 0.201227,0.240858 0.386663,0.49719 0.587891,0.738281 0.04258,-0.04307 0.07709,-0.0915 0.158203,-0.154296 0.05363,-0.04154 0.114356,-0.07174 0.167969,-0.113282 0.05585,-0.04329 0.10986,-0.0875 0.164062,-0.132812 -0.233002,-0.279933 -0.442042,-0.586898 -0.699219,-0.841797 -0.110975,-0.109994 -0.215107,-0.165028 -0.302734,-0.175781 z m 1.458984,1.449218 c -0.0692,0.06037 -0.136421,0.123653 -0.208984,0.179688 -0.07221,0.05575 -0.154317,0.10054 -0.226563,0.15625 -0.03322,0.02563 -0.04909,0.05289 -0.07227,0.07617 0.05727,0.049 0.109536,0.102342 0.171875,0.146484 0.03419,0.0242 0.07104,0.04399 0.107422,0.06445 -0.05421,-0.08798 -0.0058,-0.138756 0.146484,-0.267578 0.0043,4.69e-4 0.0087,4.9e-5 0.01367,0 -0.0023,-9.09e-4 -0.0057,-0.0051 -0.0078,-0.0059 0.01403,-0.01193 0.01974,-0.0157 0.03516,-0.0293 0.09958,-0.06692 0.20746,-0.12412 0.318359,-0.173828 -0.03488,-0.01635 -0.06928,-0.03406 -0.105469,-0.04687 -0.0091,-0.0032 0.0024,0.01985 0.0039,0.0293 -0.06558,-0.03534 -0.116981,-0.08626 -0.175781,-0.128907 z m 0.126953,0.267578 c -0.01198,-0.0015 -0.0018,0.01198 0.002,0.02148 0.0065,-0.0028 0.01301,-0.0034 0.01953,-0.0059 -0.0044,-0.0017 -0.01831,-0.01522 -0.02148,-0.01563 z m 1.09375,0.265626 c -0.05325,0.09061 -0.138691,0.177547 -0.302734,0.232421 -0.08201,0.02742 -0.307475,0.103843 -0.433594,0.140625 0.111748,0.04243 0.215055,0.08787 0.248047,0.0918 0.06277,0.0076 0.126241,-0.0018 0.189453,-0.002 0.249835,-0.153638 0.159682,-0.04781 0.273438,-0.314453 0.03367,-0.07891 0.03701,-0.122924 0.02539,-0.148437 z m -1.185546,0.05469 c -0.007,0.04049 -0.01023,0.08074 -0.01367,0.121094 0.03008,0.0061 0.06112,0.0091 0.08984,0.01953 0.02313,0.0083 0.02678,0.04572 0.04883,0.05664 0.0012,6.22e-4 0.01908,0.0067 0.02148,0.0078 -0.05243,-0.06586 -0.106312,-0.130892 -0.146484,-0.205078 z m 0.482421,0.144531 c -0.004,0.0018 -0.0078,0.004 -0.01172,0.0059 -2.41e-4,0.02674 -0.0052,0.05334 -0.0039,0.08008 0.0011,0.02275 0.04909,-0.03736 0.03711,-0.05664 0,0 -0.002,-0.002 -0.002,-0.002 -0.0029,-0.0047 -0.0091,-0.0065 -0.0098,-0.01367 -0.0029,-0.0035 -0.0057,-0.0072 -0.0098,-0.01367 z"
     transform="scale(0.26458333)"
     style="fill:#ff0000;fill-opacity:1;fill-rule:nonzero;stroke:none;stroke-width:3.77953"
     id="path1015" />
  <path
     d="m 28.904297,75.441406 c -0.01951,-0.02193 -0.03326,0.131912 -0.04687,0.296875 -0.02022,0.0012 -0.04465,0.0082 -0.06641,0.01172 -10e-4,-0.05272 -0.0045,-0.105477 -0.0039,-0.158203 -0.06276,0.01013 -0.125891,0.01599 -0.1875,0.03125 -0.251425,0.06319 -0.49984,0.168009 -0.714843,0.3125 -0.01541,0.01359 -0.02113,0.01737 -0.03516,0.0293 0.0021,7.49e-4 0.0055,0.0049 0.0078,0.0059 -0.005,4.9e-5 -0.0094,4.69e-4 -0.01367,0 -0.25718,0.217558 -0.259859,0.194336 0.126953,0.546875 -0.02249,-0.01926 -0.03767,-0.05398 -0.0293,-0.132812 0.0063,-0.06063 0.009,-0.120935 0.01953,-0.181641 0.05537,0.102257 0.122852,0.197273 0.201171,0.283203 -0.06333,0.02784 -0.133983,0.06251 -0.179687,0.04297 0.0238,0.02176 0.03384,0.02984 0.06055,0.05469 0.02309,0.02154 0.05899,-0.0184 0.08789,-0.03125 0.01822,-0.008 0.04654,-0.01199 0.07227,-0.01758 0.0084,0.0085 0.01485,0.01911 0.02344,0.02734 0.03322,0.03175 0.09026,-0.01405 0.134766,-0.02539 0.109013,-0.02835 0.391183,-0.125749 0.482422,-0.15625 0.47653,-0.159406 0.452901,-0.575567 0.119141,-0.632812 -0.01125,-0.05991 -0.02363,-0.119649 -0.03125,-0.179688 -0.0098,-0.0775 -0.01877,-0.11732 -0.02734,-0.126953 z m -0.117188,0.150391 c 0.0072,-0.0012 0.01431,-0.0026 0.02148,-0.0039 0.0073,-0.0013 -0.02139,-0.0076 -0.02148,0 -1.6e-5,0.0013 1.6e-5,0.0026 0,0.0039 z m -0.734375,0.291015 c 0.0032,4.06e-4 0.01713,0.01392 0.02148,0.01563 -0.0065,0.0024 -0.01306,0.003 -0.01953,0.0059 -0.0038,-0.0095 -0.01389,-0.02301 -0.002,-0.02148 z m 0.75586,0.337891 c 0.002,-2.34e-4 0.009,2.45e-4 0.01172,0 -0.0049,0.06352 -0.0083,0.02304 -0.01172,0 z m -0.365235,0.126953 c 0.0088,0.01392 0.01235,0.01455 0.02148,0.0293 0.01198,0.01928 -0.03601,0.07939 -0.03711,0.05664 -0.0013,-0.02673 0.0037,-0.05334 0.0039,-0.08008 0.0039,-0.0018 0.0078,-0.0041 0.01172,-0.0059 z"
     transform="scale(0.26458333)"
     style="fill:#ff0000;fill-opacity:1;fill-rule:nonzero;stroke:none;stroke-width:3.77953"
     id="path1026" />
  <path
     d="m 28.332031,74.765625 c -0.06,-0.002 -0.129058,0.0054 -0.205078,0.02344 -0.334851,0.07933 -0.562054,0.325661 -0.822265,0.527344 -0.05361,0.04154 -0.114334,0.07174 -0.167969,0.113282 -0.166281,0.12873 -0.189536,0.166434 -0.324219,0.316406 -0.03636,0.05998 -0.08223,0.11502 -0.109375,0.179687 -0.01246,0.02968 -0.01665,0.06218 -0.02344,0.09375 -0.01661,0.01485 0.0033,-0.0075 -0.01953,0.01367 -0.024,0.0223 -0.04197,0.05074 -0.0625,0.07617 -0.01209,0.01663 -0.02306,0.03427 -0.03516,0.05078 -0.369815,0.503849 0.144796,0.878462 0.509766,0.371094 0.0073,-0.0102 0.01419,-0.02105 0.02148,-0.03125 0.0087,-0.01172 0.04181,-0.03742 0.02734,-0.03516 -0.02884,0.0042 -0.09467,0.06553 -0.07617,0.04297 0.06202,-0.07559 0.147612,-0.128996 0.208984,-0.205078 0.01799,-0.0223 0.02374,-0.05338 0.02344,-0.08203 -9.2e-5,-0.0094 -0.01569,0.01033 -0.02344,0.01563 0.011,-0.02419 0.02217,-0.04999 0.0332,-0.07422 0.07334,-0.08632 0.110482,-0.139466 0.203125,-0.210937 0.07225,-0.05571 0.154351,-0.100502 0.226563,-0.15625 0.175022,-0.135156 0.318663,-0.313959 0.535156,-0.386719 0.51839,-0.174184 0.500089,-0.628421 0.08008,-0.642578 z m -1.671875,1.330078 c -0.0023,0.0105 -0.005,0.02089 -0.0078,0.03125 -0.0021,0.0076 -0.0027,-0.01701 0.002,-0.02344 0.0011,-0.0015 0.0046,-0.0061 0.0059,-0.0078 z"
     transform="scale(0.26458333)"
     style="fill:#ff0000;fill-opacity:1;fill-rule:nonzero;stroke:none;stroke-width:3.77953"
     id="path1042" />
  <path
     d="m 22.673828,75.556641 c -0.259733,0.03313 -0.287837,0.418021 0.0957,0.6875 0.384244,0.269971 0.0779,0.0445 0.498047,0.390625 0.106046,0.08738 0.214645,0.169976 0.320313,0.257812 0.228283,0.189732 0.291982,0.276483 0.539062,0.423828 0.06313,0.0378 0.134531,0.06081 0.201172,0.0918 0.282233,0.08145 -0.06847,-0.0097 0.296875,-0.02734 -0.02063,0.04065 -0.04284,0.09006 -0.02344,0.09766 0.116845,0.04573 0.241348,0.07068 0.361329,0.107422 0.09875,0.03024 0.19654,0.06234 0.294921,0.09375 0.06692,0.02022 0.09671,0.02878 0.140626,0.04297 7.3e-4,-0.0068 -0.02542,0.0339 0.01172,-0.04102 0.31138,-0.628048 0.441211,-0.479102 0.03906,-0.603516 -0.108454,-0.03439 -0.214526,-0.07336 -0.324219,-0.103516 -0.06803,-0.01852 -0.14033,-0.02003 -0.207031,-0.04297 -0.227538,-0.07849 -0.273743,-0.109054 -0.34961,-0.107422 -0.23164,-0.08745 -0.39804,-0.269574 -0.585937,-0.425781 -0.10159,-0.08443 -0.206312,-0.162491 -0.308594,-0.246094 -0.473829,-0.387315 -0.168513,-0.171819 -0.669922,-0.494141 -0.131433,-0.08449 -0.2435,-0.112605 -0.330078,-0.101562 z m 2.72461,2.166015 c -7.71e-4,0.0072 -0.01937,0.0463 0.0078,0.002 -0.0023,-7.53e-4 -0.0054,-0.0012 -0.0078,-0.002 z m 0.0078,0.002 c 0.264351,0.08501 0.178332,0.03239 0.396484,-0.539062 0.161659,-0.423465 -0.256653,0.310942 -0.396484,0.539062 z"
     transform="scale(0.26458333)"
     style="fill:#ff0000;fill-opacity:1;fill-rule:nonzero;stroke:none;stroke-width:3.77953"
     id="path1063" />
  <path
     d="m 22.673828,75.556641 c -0.259733,0.03313 -0.287837,0.418021 0.0957,0.6875 0.384244,0.269971 0.0779,0.0445 0.498047,0.390625 0.106046,0.08738 0.214645,0.169976 0.320313,0.257812 0.228283,0.189732 0.291982,0.276483 0.539062,0.423828 0.06313,0.0378 0.134531,0.06081 0.201172,0.0918 0.282233,0.08145 -0.06847,-0.0097 0.296875,-0.02734 -0.02063,0.04065 -0.04284,0.09006 -0.02344,0.09766 0.116845,0.04573 0.241348,0.07068 0.361329,0.107422 0.09875,0.03024 0.19654,0.06234 0.294921,0.09375 0.06692,0.02022 0.09671,0.02878 0.140626,0.04297 7.3e-4,-0.0068 -0.02542,0.0339 0.01172,-0.04102 0.31138,-0.628048 0.441211,-0.479102 0.03906,-0.603516 -0.108454,-0.03439 -0.214526,-0.07336 -0.324219,-0.103516 -0.06803,-0.01852 -0.14033,-0.02003 -0.207031,-0.04297 -0.227538,-0.07849 -0.273743,-0.109054 -0.34961,-0.107422 -0.23164,-0.08745 -0.39804,-0.269574 -0.585937,-0.425781 -0.10159,-0.08443 -0.206312,-0.162491 -0.308594,-0.246094 -0.473829,-0.387315 -0.168513,-0.171819 -0.669922,-0.494141 -0.131433,-0.08449 -0.2435,-0.112605 -0.330078,-0.101562 z m 2.72461,2.166015 c -7.71e-4,0.0072 -0.01937,0.0463 0.0078,0.002 -0.0023,-7.53e-4 -0.0054,-0.0012 -0.0078,-0.002 z m 0.0078,0.002 c 0.264351,0.08501 0.178332,0.03239 0.396484,-0.539062 0.161659,-0.423465 -0.256653,0.310942 -0.396484,0.539062 z m -2.172741,-0.06913 z"
     transform="scale(0.26458333)"
     style="fill:#ff0000;fill-opacity:1;fill-rule:nonzero;stroke:none;stroke-width:3.77953"
     id="path1072" />
</svg>
